<svg xmlns="http://www.w3.org/2000/svg" xmlns:xlink="http://www.w3.org/1999/xlink" width="80" zoomAndPan="magnify" viewBox="0 0 60 60" height="80" preserveAspectRatio="xMidYMid meet" version="1.0"><defs><g/><clipPath id="a86ec265d3"><path d="M 25 26 L 41.730469 26 L 41.730469 37 L 25 37 Z M 25 26 " clip-rule="nonzero"/></clipPath><clipPath id="03fc38e593"><path d="M 18.480469 13.402344 L 40 13.402344 L 40 37.402344 L 18.480469 37.402344 Z M 18.480469 13.402344 " clip-rule="nonzero"/></clipPath></defs><rect x="-6" width="72" fill="#ffffff" y="-6" height="72" fill-opacity="1"/><rect x="-6" width="72" fill="#ffffff" y="-6" height="72" fill-opacity="1"/><g clip-path="url(#a86ec265d3)"><path fill="#00c2cb" d="M 37.132812 32.25 C 37.851562 30.988281 38.265625 29.53125 38.265625 27.976562 C 38.265625 27.460938 38.21875 26.957031 38.132812 26.46875 C 37.785156 28.410156 36.753906 30.113281 35.296875 31.320312 C 34.453125 32.019531 33.199219 31.875 32.539062 31.003906 L 31.308594 29.371094 C 31.101562 29.101562 30.78125 28.941406 30.441406 28.941406 L 25.75 28.941406 C 25.429688 28.941406 25.222656 29.28125 25.363281 29.566406 L 25.550781 29.9375 C 25.898438 30.628906 26.582031 31.089844 27.351562 31.152344 L 27.632812 31.171875 L 28.847656 31.269531 C 29.191406 31.296875 29.503906 31.484375 29.683594 31.78125 L 30.234375 32.683594 L 30.542969 33.1875 L 32.273438 36.019531 C 32.304688 36.070312 32.34375 36.113281 32.386719 36.148438 C 32.515625 36.253906 32.683594 36.300781 32.851562 36.257812 C 32.851562 36.257812 32.855469 36.257812 32.855469 36.257812 C 37.34375 35.148438 40.800781 31.425781 41.519531 26.796875 C 40.890625 29.171875 39.269531 31.144531 37.132812 32.25 " fill-opacity="1" fill-rule="nonzero"/></g><g clip-path="url(#03fc38e593)"><path fill="#003479" d="M 29.351562 31.984375 C 29.238281 31.792969 29.035156 31.671875 28.816406 31.65625 L 27.324219 31.539062 C 26.421875 31.464844 25.609375 30.921875 25.207031 30.113281 L 25.027344 29.761719 C 24.902344 29.511719 24.898438 29.210938 25.039062 28.96875 C 25.183594 28.714844 25.441406 28.5625 25.726562 28.554688 L 25.75 28.550781 L 27.253906 28.550781 C 26.765625 27.78125 25.882812 27.34375 24.96875 27.429688 L 23.40625 27.574219 C 22.738281 27.636719 22.140625 27.179688 22.015625 26.519531 C 21.925781 26.027344 21.878906 25.523438 21.878906 25.007812 C 21.878906 22.394531 23.101562 20.066406 25.007812 18.566406 C 23.121094 19.808594 21.648438 21.636719 20.855469 23.792969 C 21.570312 18.601562 26.023438 14.601562 31.414062 14.601562 C 34.75 14.601562 37.726562 16.132812 39.679688 18.53125 C 37.605469 15.457031 34.089844 13.433594 30.101562 13.421875 C 23.71875 13.40625 18.492188 18.605469 18.484375 24.992188 C 18.480469 27.238281 19.117188 29.335938 20.222656 31.113281 C 20.246094 31.152344 20.269531 31.1875 20.292969 31.226562 L 21.839844 30.964844 C 22.527344 30.847656 23.097656 31.515625 22.863281 32.175781 C 22.855469 32.195312 22.851562 32.203125 22.851562 32.203125 C 23.847656 32.566406 23.679688 33.535156 23.679688 33.535156 C 24.558594 33.9375 24.195312 34.765625 24.195312 34.765625 C 24.507812 34.894531 24.617188 35.144531 24.644531 35.226562 C 24.660156 35.269531 24.675781 35.308594 24.691406 35.351562 L 25.292969 36.894531 C 25.394531 37.160156 25.714844 37.378906 26 37.378906 C 26.359375 37.378906 26.605469 37.019531 26.480469 36.679688 L 26.199219 35.933594 L 25.824219 34.933594 C 25.796875 34.863281 25.84375 34.785156 25.921875 34.78125 C 25.96875 34.777344 26.015625 34.808594 26.035156 34.855469 L 26.527344 36.042969 L 26.894531 36.921875 C 27.019531 37.226562 27.351562 37.398438 27.667969 37.308594 C 28.042969 37.195312 28.230469 36.773438 28.058594 36.421875 L 27.15625 34.554688 C 27.117188 34.472656 27.171875 34.378906 27.257812 34.371094 C 27.3125 34.367188 27.359375 34.394531 27.382812 34.4375 L 28.484375 36.488281 L 28.621094 36.742188 C 28.753906 36.992188 29.046875 37.121094 29.320312 37.03125 C 29.527344 36.964844 29.667969 36.789062 29.707031 36.589844 C 29.726562 36.46875 29.710938 36.339844 29.652344 36.21875 L 28.789062 34.550781 C 28.753906 34.480469 28.78125 34.386719 28.855469 34.351562 C 28.925781 34.324219 29 34.355469 29.03125 34.417969 L 30.003906 36.253906 C 30.082031 36.402344 30.199219 36.515625 30.335938 36.59375 C 30.566406 36.71875 30.847656 36.738281 31.101562 36.617188 C 31.148438 36.59375 31.195312 36.566406 31.234375 36.539062 C 31.582031 36.285156 31.6875 35.804688 31.457031 35.425781 L 29.351562 31.984375 " fill-opacity="1" fill-rule="nonzero"/></g><path fill="#00c2cb" d="M 20.945312 32.679688 L 22.164062 32.476562 C 22.527344 32.417969 22.773438 32.070312 22.714844 31.707031 C 22.652344 31.339844 22.308594 31.09375 21.941406 31.15625 L 20.726562 31.355469 C 20.363281 31.417969 20.113281 31.761719 20.175781 32.128906 C 20.234375 32.492188 20.582031 32.738281 20.945312 32.679688 " fill-opacity="1" fill-rule="nonzero"/><path fill="#00c2cb" d="M 23.335938 33.027344 C 23.273438 32.660156 22.929688 32.414062 22.5625 32.472656 L 20.902344 32.792969 C 20.539062 32.851562 20.292969 33.199219 20.351562 33.5625 C 20.414062 33.925781 20.757812 34.175781 21.121094 34.113281 L 22.785156 33.796875 C 23.148438 33.734375 23.394531 33.390625 23.335938 33.027344 " fill-opacity="1" fill-rule="nonzero"/><path fill="#00c2cb" d="M 23.894531 34.40625 C 23.835938 34.039062 23.488281 33.792969 23.125 33.855469 L 21.90625 34.054688 C 21.542969 34.117188 21.296875 34.460938 21.355469 34.828125 C 21.417969 35.191406 21.761719 35.4375 22.128906 35.378906 L 23.34375 35.175781 C 23.707031 35.117188 23.957031 34.769531 23.894531 34.40625 " fill-opacity="1" fill-rule="nonzero"/><path fill="#00c2cb" d="M 23.96875 35.148438 L 22.96875 35.304688 C 22.605469 35.367188 22.359375 35.710938 22.417969 36.078125 C 22.480469 36.441406 22.824219 36.6875 23.191406 36.628906 L 24.1875 36.46875 C 24.554688 36.410156 24.800781 36.0625 24.738281 35.699219 C 24.679688 35.332031 24.335938 35.085938 23.96875 35.148438 " fill-opacity="1" fill-rule="nonzero"/><g fill="#00c2cb" fill-opacity="1"><g transform="translate(14.364369, 28.15085)"><g><path d="M 4.46875 4.359375 C 4.46875 4.398438 4.457031 4.425781 4.4375 4.4375 C 4.425781 4.457031 4.40625 4.460938 4.375 4.453125 L 0.75 3.59375 C 0.664062 3.570312 0.625 3.535156 0.625 3.484375 L 0.609375 3.46875 C 0.597656 3.414062 0.628906 3.359375 0.703125 3.296875 L 2.09375 2.296875 L 0.421875 1.890625 C 0.347656 1.878906 0.304688 1.847656 0.296875 1.796875 L 0.296875 1.78125 C 0.285156 1.71875 0.3125 1.660156 0.375 1.609375 L 3.421875 -0.53125 C 3.441406 -0.550781 3.460938 -0.554688 3.484375 -0.546875 C 3.515625 -0.535156 3.53125 -0.507812 3.53125 -0.46875 L 3.625 0.015625 C 3.632812 0.046875 3.632812 0.0703125 3.625 0.09375 C 3.613281 0.125 3.597656 0.144531 3.578125 0.15625 L 1.5625 1.53125 L 3.9375 2.0625 C 3.96875 2.082031 3.988281 2.097656 4 2.109375 C 4.019531 2.128906 4.035156 2.148438 4.046875 2.171875 L 4.140625 2.671875 C 4.148438 2.703125 4.144531 2.726562 4.125 2.75 C 4.101562 2.769531 4.078125 2.769531 4.046875 2.75 L 2.921875 2.5 L 1.796875 3.25 L 4.265625 3.765625 C 4.285156 3.773438 4.304688 3.785156 4.328125 3.796875 C 4.347656 3.816406 4.363281 3.84375 4.375 3.875 Z M 4.46875 4.359375 "/></g></g></g><g fill="#00c2cb" fill-opacity="1"><g transform="translate(15.861777, 34.227931)"><g><path d="M 2.0625 2.28125 C 2.082031 2.320312 2.085938 2.359375 2.078125 2.390625 C 2.078125 2.421875 2.0625 2.445312 2.03125 2.46875 L 1.6875 2.65625 C 1.65625 2.675781 1.625 2.679688 1.59375 2.671875 C 1.570312 2.671875 1.554688 2.65625 1.546875 2.625 L 0.265625 0.453125 C 0.234375 0.390625 0.25 0.335938 0.3125 0.296875 L 3.203125 -1.40625 C 3.253906 -1.4375 3.296875 -1.421875 3.328125 -1.359375 L 4.578125 0.765625 C 4.597656 0.796875 4.609375 0.820312 4.609375 0.84375 C 4.609375 0.875 4.59375 0.894531 4.5625 0.90625 L 4.203125 1.125 C 4.140625 1.164062 4.085938 1.15625 4.046875 1.09375 L 3.09375 -0.546875 L 2.25 -0.046875 L 3 1.234375 C 3.019531 1.273438 3.023438 1.304688 3.015625 1.328125 C 3.015625 1.347656 3 1.367188 2.96875 1.390625 L 2.625 1.59375 C 2.601562 1.601562 2.578125 1.601562 2.546875 1.59375 C 2.515625 1.59375 2.488281 1.570312 2.46875 1.53125 L 1.71875 0.25 L 1.09375 0.625 Z M 2.0625 2.28125 "/></g></g></g><g fill="#00c2cb" fill-opacity="1"><g transform="translate(18.115413, 37.829902)"><g><path d="M 3.21875 0.3125 C 3.289062 0.425781 3.332031 0.550781 3.34375 0.6875 C 3.363281 0.820312 3.351562 0.953125 3.3125 1.078125 C 3.28125 1.210938 3.210938 1.332031 3.109375 1.4375 C 3.003906 1.550781 2.878906 1.628906 2.734375 1.671875 C 2.585938 1.722656 2.441406 1.75 2.296875 1.75 C 2.148438 1.75 2 1.710938 1.84375 1.640625 C 1.695312 1.578125 1.5625 1.488281 1.4375 1.375 L 0.359375 0.34375 C 0.328125 0.3125 0.328125 0.273438 0.359375 0.234375 L 2.71875 -2.21875 C 2.757812 -2.257812 2.796875 -2.265625 2.828125 -2.234375 L 3.828125 -1.265625 C 3.941406 -1.171875 4.03125 -1.0625 4.09375 -0.9375 C 4.15625 -0.8125 4.191406 -0.679688 4.203125 -0.546875 C 4.222656 -0.421875 4.210938 -0.300781 4.171875 -0.1875 C 4.128906 -0.0703125 4.066406 0.0234375 3.984375 0.109375 C 3.910156 0.191406 3.828125 0.25 3.734375 0.28125 C 3.648438 0.320312 3.566406 0.34375 3.484375 0.34375 C 3.398438 0.351562 3.3125 0.34375 3.21875 0.3125 Z M 3.453125 -0.234375 C 3.515625 -0.285156 3.550781 -0.347656 3.5625 -0.421875 C 3.570312 -0.492188 3.5625 -0.566406 3.53125 -0.640625 C 3.507812 -0.710938 3.46875 -0.773438 3.40625 -0.828125 L 2.84375 -1.390625 L 2.3125 -0.828125 L 2.875 -0.265625 C 2.9375 -0.210938 3.003906 -0.175781 3.078125 -0.15625 C 3.148438 -0.132812 3.21875 -0.128906 3.28125 -0.140625 C 3.34375 -0.148438 3.398438 -0.179688 3.453125 -0.234375 Z M 1.828125 0.9375 C 1.910156 1.019531 2 1.066406 2.09375 1.078125 C 2.195312 1.097656 2.296875 1.097656 2.390625 1.078125 C 2.492188 1.054688 2.582031 1.003906 2.65625 0.921875 C 2.726562 0.847656 2.769531 0.765625 2.78125 0.671875 C 2.789062 0.585938 2.773438 0.503906 2.734375 0.421875 C 2.703125 0.335938 2.644531 0.253906 2.5625 0.171875 L 1.9375 -0.4375 L 1.203125 0.328125 Z M 1.828125 0.9375 "/></g></g></g><g fill="#003479" fill-opacity="1"><g transform="translate(21.269685, 40.59521)"><g/></g></g><g fill="#aa5dd4" fill-opacity="1"><g transform="translate(23.204839, 41.822031)"><g><path d="M 3.28125 1.03125 C 3.289062 1.070312 3.285156 1.097656 3.265625 1.109375 C 3.242188 1.128906 3.21875 1.132812 3.1875 1.125 L 2.71875 0.953125 C 2.6875 0.941406 2.660156 0.925781 2.640625 0.90625 C 2.628906 0.882812 2.625 0.851562 2.625 0.8125 L 2.609375 0.46875 L 1.046875 -0.078125 L 0.8125 0.1875 C 0.789062 0.207031 0.765625 0.222656 0.734375 0.234375 C 0.710938 0.242188 0.6875 0.242188 0.65625 0.234375 L 0.1875 0.0625 C 0.144531 0.0507812 0.117188 0.03125 0.109375 0 C 0.109375 -0.0195312 0.128906 -0.046875 0.171875 -0.078125 L 2.71875 -2.78125 C 2.738281 -2.800781 2.765625 -2.8125 2.796875 -2.8125 C 2.828125 -2.820312 2.851562 -2.820312 2.875 -2.8125 L 2.890625 -2.8125 C 2.921875 -2.800781 2.941406 -2.78125 2.953125 -2.75 C 2.972656 -2.726562 2.988281 -2.703125 3 -2.671875 Z M 1.46875 -0.53125 L 2.5625 -0.140625 L 2.5 -1.6875 Z M 1.46875 -0.53125 "/></g></g></g><g fill="#003479" fill-opacity="1"><g transform="translate(27.354955, 43.080855)"><g/></g></g><g fill="#003479" fill-opacity="1"><g transform="translate(29.601462, 43.366964)"><g><path d="M 1.609375 -0.0625 C 1.472656 -0.0507812 1.335938 -0.0546875 1.203125 -0.078125 C 1.078125 -0.0976562 0.953125 -0.128906 0.828125 -0.171875 C 0.703125 -0.210938 0.585938 -0.265625 0.484375 -0.328125 C 0.378906 -0.398438 0.289062 -0.476562 0.21875 -0.5625 C 0.195312 -0.582031 0.1875 -0.601562 0.1875 -0.625 C 0.195312 -0.65625 0.210938 -0.679688 0.234375 -0.703125 L 0.515625 -1.046875 C 0.535156 -1.066406 0.554688 -1.070312 0.578125 -1.0625 C 0.609375 -1.0625 0.640625 -1.054688 0.671875 -1.046875 C 0.742188 -0.960938 0.828125 -0.894531 0.921875 -0.84375 C 1.023438 -0.789062 1.128906 -0.75 1.234375 -0.71875 C 1.335938 -0.695312 1.441406 -0.691406 1.546875 -0.703125 C 1.742188 -0.710938 1.890625 -0.757812 1.984375 -0.84375 C 2.085938 -0.925781 2.132812 -1.035156 2.125 -1.171875 C 2.125 -1.253906 2.09375 -1.328125 2.03125 -1.390625 C 1.96875 -1.453125 1.878906 -1.503906 1.765625 -1.546875 C 1.648438 -1.585938 1.507812 -1.628906 1.34375 -1.671875 C 1.164062 -1.710938 1.007812 -1.757812 0.875 -1.8125 C 0.738281 -1.863281 0.617188 -1.925781 0.515625 -2 C 0.421875 -2.082031 0.347656 -2.175781 0.296875 -2.28125 C 0.242188 -2.382812 0.210938 -2.507812 0.203125 -2.65625 C 0.179688 -2.84375 0.210938 -3.015625 0.296875 -3.171875 C 0.390625 -3.328125 0.523438 -3.453125 0.703125 -3.546875 C 0.878906 -3.648438 1.09375 -3.710938 1.34375 -3.734375 C 1.476562 -3.742188 1.609375 -3.734375 1.734375 -3.703125 C 1.859375 -3.671875 1.976562 -3.628906 2.09375 -3.578125 C 2.207031 -3.535156 2.304688 -3.472656 2.390625 -3.390625 C 2.410156 -3.367188 2.421875 -3.34375 2.421875 -3.3125 C 2.429688 -3.28125 2.425781 -3.25 2.40625 -3.21875 L 2.171875 -2.9375 C 2.140625 -2.894531 2.109375 -2.875 2.078125 -2.875 C 2.046875 -2.882812 2.007812 -2.894531 1.96875 -2.90625 C 1.894531 -2.976562 1.800781 -3.023438 1.6875 -3.046875 C 1.570312 -3.078125 1.460938 -3.085938 1.359375 -3.078125 C 1.179688 -3.066406 1.046875 -3.023438 0.953125 -2.953125 C 0.867188 -2.890625 0.832031 -2.800781 0.84375 -2.6875 C 0.84375 -2.601562 0.878906 -2.53125 0.953125 -2.46875 C 1.023438 -2.40625 1.117188 -2.351562 1.234375 -2.3125 C 1.359375 -2.269531 1.492188 -2.226562 1.640625 -2.1875 C 1.785156 -2.15625 1.925781 -2.113281 2.0625 -2.0625 C 2.195312 -2.019531 2.316406 -1.960938 2.421875 -1.890625 C 2.535156 -1.828125 2.625 -1.742188 2.6875 -1.640625 C 2.75 -1.535156 2.785156 -1.40625 2.796875 -1.25 C 2.804688 -1.082031 2.785156 -0.925781 2.734375 -0.78125 C 2.691406 -0.644531 2.617188 -0.523438 2.515625 -0.421875 C 2.410156 -0.316406 2.28125 -0.234375 2.125 -0.171875 C 1.96875 -0.109375 1.796875 -0.0703125 1.609375 -0.0625 Z M 1.609375 -0.0625 "/></g></g></g><g fill="#003479" fill-opacity="1"><g transform="translate(33.563579, 42.997535)"><g><path d="M -0.234375 -3.625 L 0.46875 -1.734375 C 0.507812 -1.617188 0.566406 -1.515625 0.640625 -1.421875 C 0.722656 -1.328125 0.8125 -1.253906 0.90625 -1.203125 C 1 -1.160156 1.097656 -1.140625 1.203125 -1.140625 C 1.316406 -1.140625 1.429688 -1.160156 1.546875 -1.203125 C 1.660156 -1.242188 1.757812 -1.300781 1.84375 -1.375 C 1.925781 -1.445312 1.988281 -1.53125 2.03125 -1.625 C 2.070312 -1.726562 2.09375 -1.835938 2.09375 -1.953125 C 2.09375 -2.066406 2.070312 -2.179688 2.03125 -2.296875 L 1.328125 -4.1875 C 1.304688 -4.25 1.328125 -4.289062 1.390625 -4.3125 L 1.84375 -4.484375 C 1.90625 -4.503906 1.945312 -4.484375 1.96875 -4.421875 L 2.671875 -2.515625 C 2.742188 -2.316406 2.78125 -2.113281 2.78125 -1.90625 C 2.78125 -1.707031 2.734375 -1.519531 2.640625 -1.34375 C 2.554688 -1.175781 2.441406 -1.023438 2.296875 -0.890625 C 2.148438 -0.753906 1.972656 -0.648438 1.765625 -0.578125 C 1.554688 -0.503906 1.351562 -0.472656 1.15625 -0.484375 C 0.957031 -0.492188 0.769531 -0.539062 0.59375 -0.625 C 0.425781 -0.707031 0.273438 -0.820312 0.140625 -0.96875 C 0.015625 -1.113281 -0.0820312 -1.289062 -0.15625 -1.5 L -0.859375 -3.390625 C -0.878906 -3.453125 -0.867188 -3.492188 -0.828125 -3.515625 L -0.34375 -3.6875 C -0.289062 -3.707031 -0.253906 -3.6875 -0.234375 -3.625 Z M -0.234375 -3.625 "/></g></g></g><g fill="#003479" fill-opacity="1"><g transform="translate(37.837128, 41.280615)"><g><path d="M 1.71875 -2.34375 C 1.726562 -2.382812 1.742188 -2.414062 1.765625 -2.4375 C 1.796875 -2.457031 1.820312 -2.457031 1.84375 -2.4375 L 2.3125 -2.265625 C 2.332031 -2.265625 2.347656 -2.25 2.359375 -2.21875 C 2.367188 -2.195312 2.363281 -2.164062 2.34375 -2.125 C 2.3125 -2.007812 2.265625 -1.894531 2.203125 -1.78125 C 2.140625 -1.664062 2.0625 -1.554688 1.96875 -1.453125 C 1.882812 -1.347656 1.796875 -1.257812 1.703125 -1.1875 C 1.535156 -1.0625 1.359375 -0.96875 1.171875 -0.90625 C 0.984375 -0.84375 0.796875 -0.804688 0.609375 -0.796875 C 0.421875 -0.796875 0.234375 -0.828125 0.046875 -0.890625 C -0.128906 -0.953125 -0.296875 -1.035156 -0.453125 -1.140625 C -0.617188 -1.242188 -0.765625 -1.378906 -0.890625 -1.546875 C -1.015625 -1.722656 -1.101562 -1.90625 -1.15625 -2.09375 C -1.21875 -2.28125 -1.25 -2.46875 -1.25 -2.65625 C -1.257812 -2.84375 -1.234375 -3.023438 -1.171875 -3.203125 C -1.109375 -3.390625 -1.019531 -3.5625 -0.90625 -3.71875 C -0.789062 -3.875 -0.648438 -4.015625 -0.484375 -4.140625 C -0.390625 -4.210938 -0.28125 -4.273438 -0.15625 -4.328125 C -0.0390625 -4.378906 0.0820312 -4.421875 0.21875 -4.453125 C 0.351562 -4.492188 0.484375 -4.507812 0.609375 -4.5 C 0.640625 -4.5 0.664062 -4.488281 0.6875 -4.46875 C 0.707031 -4.445312 0.71875 -4.429688 0.71875 -4.421875 L 0.75 -3.921875 C 0.75 -3.898438 0.738281 -3.878906 0.71875 -3.859375 C 0.695312 -3.847656 0.671875 -3.84375 0.640625 -3.84375 C 0.503906 -3.84375 0.367188 -3.820312 0.234375 -3.78125 C 0.109375 -3.738281 0 -3.679688 -0.09375 -3.609375 C -0.226562 -3.515625 -0.335938 -3.398438 -0.421875 -3.265625 C -0.503906 -3.128906 -0.554688 -2.984375 -0.578125 -2.828125 C -0.597656 -2.679688 -0.59375 -2.53125 -0.5625 -2.375 C -0.53125 -2.21875 -0.460938 -2.070312 -0.359375 -1.9375 C -0.253906 -1.8125 -0.132812 -1.710938 0 -1.640625 C 0.132812 -1.566406 0.273438 -1.515625 0.421875 -1.484375 C 0.566406 -1.460938 0.71875 -1.472656 0.875 -1.515625 C 1.03125 -1.554688 1.175781 -1.625 1.3125 -1.71875 C 1.40625 -1.789062 1.488281 -1.882812 1.5625 -2 C 1.644531 -2.113281 1.695312 -2.226562 1.71875 -2.34375 Z M 1.71875 -2.34375 "/></g></g></g><g fill="#003479" fill-opacity="1"><g transform="translate(41.232087, 38.607484)"><g><path d="M 1 -2.71875 C 1.007812 -2.769531 1.023438 -2.804688 1.046875 -2.828125 C 1.066406 -2.859375 1.082031 -2.863281 1.09375 -2.84375 L 1.609375 -2.828125 C 1.628906 -2.816406 1.644531 -2.800781 1.65625 -2.78125 C 1.664062 -2.757812 1.671875 -2.726562 1.671875 -2.6875 C 1.671875 -2.570312 1.65625 -2.445312 1.625 -2.3125 C 1.59375 -2.1875 1.550781 -2.0625 1.5 -1.9375 C 1.445312 -1.820312 1.382812 -1.71875 1.3125 -1.625 C 1.1875 -1.457031 1.039062 -1.316406 0.875 -1.203125 C 0.71875 -1.085938 0.546875 -1 0.359375 -0.9375 C 0.179688 -0.882812 0 -0.863281 -0.1875 -0.875 C -0.382812 -0.882812 -0.570312 -0.914062 -0.75 -0.96875 C -0.9375 -1.03125 -1.113281 -1.125 -1.28125 -1.25 C -1.4375 -1.375 -1.566406 -1.519531 -1.671875 -1.6875 C -1.785156 -1.851562 -1.867188 -2.023438 -1.921875 -2.203125 C -1.984375 -2.378906 -2.007812 -2.5625 -2 -2.75 C -2 -2.945312 -1.960938 -3.140625 -1.890625 -3.328125 C -1.828125 -3.515625 -1.734375 -3.691406 -1.609375 -3.859375 C -1.535156 -3.953125 -1.445312 -4.039062 -1.34375 -4.125 C -1.25 -4.207031 -1.140625 -4.28125 -1.015625 -4.34375 C -0.898438 -4.414062 -0.78125 -4.460938 -0.65625 -4.484375 C -0.625 -4.503906 -0.59375 -4.503906 -0.5625 -4.484375 C -0.539062 -4.472656 -0.523438 -4.460938 -0.515625 -4.453125 L -0.359375 -3.96875 C -0.347656 -3.957031 -0.347656 -3.941406 -0.359375 -3.921875 C -0.378906 -3.898438 -0.40625 -3.878906 -0.4375 -3.859375 C -0.570312 -3.828125 -0.695312 -3.773438 -0.8125 -3.703125 C -0.925781 -3.628906 -1.019531 -3.546875 -1.09375 -3.453125 C -1.195312 -3.316406 -1.265625 -3.171875 -1.296875 -3.015625 C -1.335938 -2.867188 -1.347656 -2.71875 -1.328125 -2.5625 C -1.316406 -2.40625 -1.269531 -2.257812 -1.1875 -2.125 C -1.113281 -1.988281 -1.015625 -1.867188 -0.890625 -1.765625 C -0.753906 -1.671875 -0.609375 -1.601562 -0.453125 -1.5625 C -0.304688 -1.53125 -0.15625 -1.523438 0 -1.546875 C 0.144531 -1.566406 0.285156 -1.617188 0.421875 -1.703125 C 0.554688 -1.785156 0.675781 -1.894531 0.78125 -2.03125 C 0.84375 -2.113281 0.898438 -2.21875 0.953125 -2.34375 C 1.003906 -2.476562 1.019531 -2.601562 1 -2.71875 Z M 1 -2.71875 "/></g></g></g><g fill="#003479" fill-opacity="1"><g transform="translate(43.75422, 35.104076)"><g><path d="M 0.53125 -3.046875 C 0.539062 -3.078125 0.5625 -3.097656 0.59375 -3.109375 C 0.625 -3.128906 0.65625 -3.132812 0.6875 -3.125 L 1.046875 -2.984375 C 1.078125 -2.960938 1.097656 -2.9375 1.109375 -2.90625 C 1.128906 -2.882812 1.132812 -2.859375 1.125 -2.828125 L 0.1875 -0.5 C 0.164062 -0.425781 0.117188 -0.40625 0.046875 -0.4375 L -3.078125 -1.65625 C -3.128906 -1.6875 -3.144531 -1.738281 -3.125 -1.8125 L -2.21875 -4.109375 C -2.195312 -4.128906 -2.175781 -4.144531 -2.15625 -4.15625 C -2.132812 -4.175781 -2.113281 -4.175781 -2.09375 -4.15625 L -1.6875 -4.015625 C -1.625 -3.984375 -1.609375 -3.9375 -1.640625 -3.875 L -2.328125 -2.09375 L -1.40625 -1.734375 L -0.859375 -3.109375 C -0.847656 -3.148438 -0.832031 -3.175781 -0.8125 -3.1875 C -0.789062 -3.207031 -0.765625 -3.207031 -0.734375 -3.1875 L -0.375 -3.046875 C -0.34375 -3.035156 -0.316406 -3.015625 -0.296875 -2.984375 C -0.285156 -2.960938 -0.285156 -2.929688 -0.296875 -2.890625 L -0.84375 -1.515625 L -0.171875 -1.25 Z M 0.53125 -3.046875 "/></g></g></g><g fill="#003479" fill-opacity="1"><g transform="translate(45.185195, 31.123613)"><g><path d="M 0.234375 -1.59375 C 0.222656 -1.457031 0.191406 -1.328125 0.140625 -1.203125 C 0.0976562 -1.078125 0.046875 -0.957031 -0.015625 -0.84375 C -0.078125 -0.726562 -0.148438 -0.625 -0.234375 -0.53125 C -0.316406 -0.445312 -0.410156 -0.378906 -0.515625 -0.328125 C -0.535156 -0.304688 -0.554688 -0.300781 -0.578125 -0.3125 C -0.609375 -0.320312 -0.632812 -0.335938 -0.65625 -0.359375 L -0.9375 -0.703125 C -0.957031 -0.722656 -0.960938 -0.742188 -0.953125 -0.765625 C -0.941406 -0.796875 -0.925781 -0.828125 -0.90625 -0.859375 C -0.8125 -0.910156 -0.726562 -0.976562 -0.65625 -1.0625 C -0.59375 -1.15625 -0.535156 -1.25 -0.484375 -1.34375 C -0.441406 -1.4375 -0.414062 -1.535156 -0.40625 -1.640625 C -0.382812 -1.835938 -0.40625 -1.992188 -0.46875 -2.109375 C -0.53125 -2.222656 -0.628906 -2.285156 -0.765625 -2.296875 C -0.847656 -2.304688 -0.921875 -2.285156 -0.984375 -2.234375 C -1.054688 -2.179688 -1.125 -2.101562 -1.1875 -2 C -1.25 -1.90625 -1.316406 -1.773438 -1.390625 -1.609375 C -1.453125 -1.460938 -1.519531 -1.328125 -1.59375 -1.203125 C -1.675781 -1.078125 -1.765625 -0.972656 -1.859375 -0.890625 C -1.953125 -0.804688 -2.054688 -0.742188 -2.171875 -0.703125 C -2.285156 -0.671875 -2.414062 -0.664062 -2.5625 -0.6875 C -2.757812 -0.707031 -2.925781 -0.773438 -3.0625 -0.890625 C -3.207031 -1.003906 -3.3125 -1.15625 -3.375 -1.34375 C -3.4375 -1.539062 -3.457031 -1.757812 -3.4375 -2 C -3.414062 -2.132812 -3.378906 -2.257812 -3.328125 -2.375 C -3.273438 -2.5 -3.210938 -2.613281 -3.140625 -2.71875 C -3.078125 -2.820312 -3 -2.90625 -2.90625 -2.96875 C -2.875 -2.988281 -2.84375 -2.992188 -2.8125 -2.984375 C -2.78125 -2.984375 -2.753906 -2.972656 -2.734375 -2.953125 L -2.484375 -2.671875 C -2.441406 -2.628906 -2.425781 -2.59375 -2.4375 -2.5625 C -2.445312 -2.53125 -2.46875 -2.5 -2.5 -2.46875 C -2.570312 -2.394531 -2.632812 -2.304688 -2.6875 -2.203125 C -2.75 -2.097656 -2.785156 -1.992188 -2.796875 -1.890625 C -2.816406 -1.710938 -2.796875 -1.578125 -2.734375 -1.484375 C -2.679688 -1.390625 -2.597656 -1.335938 -2.484375 -1.328125 C -2.398438 -1.316406 -2.316406 -1.335938 -2.234375 -1.390625 C -2.160156 -1.453125 -2.09375 -1.535156 -2.03125 -1.640625 C -1.976562 -1.742188 -1.914062 -1.867188 -1.84375 -2.015625 C -1.789062 -2.140625 -1.726562 -2.265625 -1.65625 -2.390625 C -1.582031 -2.523438 -1.5 -2.640625 -1.40625 -2.734375 C -1.320312 -2.828125 -1.21875 -2.894531 -1.09375 -2.9375 C -0.976562 -2.988281 -0.847656 -3.003906 -0.703125 -2.984375 C -0.535156 -2.972656 -0.390625 -2.925781 -0.265625 -2.84375 C -0.140625 -2.769531 -0.0351562 -2.671875 0.046875 -2.546875 C 0.128906 -2.421875 0.1875 -2.273438 0.21875 -2.109375 C 0.25 -1.953125 0.253906 -1.78125 0.234375 -1.59375 Z M 0.234375 -1.59375 "/></g></g></g></svg>